<svg xmlns="http://www.w3.org/2000/svg" version="1.1" viewBox="-5.0 -10.0 110.0 135.0">
 <path fill="#1e439b" d="m20.637 19.047c0-5.2578 4.2617-9.5234 9.5234-9.5234h50c4.3828 0 7.9336 3.5547 7.9336 7.9375v5.5547c0 0.875-0.71094 1.5859-1.5859 1.5859h-11.109v7.2109c1.7969 0.15625 3.5234 0.57422 5.1367 1.2148 0.074219 0.027344 0.15234 0.058594 0.22656 0.089844 2.0664 0.85156 3.9375 2.0703 5.5391 3.5703 3.543 3.3281 5.7617 8.0625 5.7617 13.312 0 6.9961-3.9375 13.07-9.707 16.133-1.4336 0.76172-2.9805 1.3359-4.6094 1.6953-0.76562 0.16797-1.5508 0.28906-2.3477 0.35938v14.352c0 4.3828-3.5547 7.9375-7.9375 7.9375h-50c-5.2617 0-9.5234-4.2656-9.5234-9.5234v-3.9688c0-0.875 0.71094-1.5859 1.5859-1.5859h11.113zm3.1719 56.352h37.301c0.87891 0 1.5898 0.71094 1.5898 1.5859v5.5547c0 2.6289 2.1328 4.7617 4.7617 4.7617 2.6289 0 4.7617-2.1328 4.7617-4.7617v-14.352c-4.8047-0.41406-9.0781-2.6914-12.094-6.1016-0.42578-0.48438-0.82812-0.98828-1.2031-1.5156-2.0586-2.8945-3.293-6.4102-3.3672-10.211 0-0.12109-0.003906-0.23828-0.003906-0.35938 0-9.5469 7.3281-17.383 16.668-18.188v-14.352c0-1.7891 0.58984-3.4375 1.5859-4.7617h-43.648c-3.5078 0-6.3516 2.8438-6.3516 6.3477zm37.301 11.902c-0.99609-1.3242-1.5859-2.9727-1.5859-4.7617v-3.9688h-48.414v2.3828c0 3.5039 2.8438 6.3477 6.3516 6.3477zm14.289-65.871h9.5234v-3.9688c0-2.6289-2.1328-4.7617-4.7617-4.7617-2.6328 0-4.7617 2.1328-4.7617 4.7617zm-45.238 5.5547c0-0.875 0.71094-1.5859 1.5859-1.5859h32.539c0.87891 0 1.5859 0.71094 1.5859 1.5859s-0.70703 1.5859-1.5859 1.5859h-32.539c-0.875 0-1.5859-0.71094-1.5859-1.5859zm43.648 7.9375c-8.3281 0-15.078 6.75-15.078 15.078 0 0.10156 0 0.19922 0.003906 0.29688 0.058594 3.1406 1.0781 6.043 2.7773 8.4336 0.30859 0.43359 0.64062 0.85156 0.99609 1.2539 2.7656 3.125 6.8008 5.0938 11.301 5.0938 1.1211 0 2.2109-0.12109 3.2578-0.35156 1.3398-0.29297 2.6172-0.76953 3.8008-1.3984 4.7734-2.5312 8.0234-7.5508 8.0234-13.328 0-4.3359-1.832-8.2461-4.7656-10.996-1.3203-1.2422-2.8711-2.25-4.5703-2.9531-0.0625-0.023437-0.125-0.050781-0.19141-0.074219-1.7148-0.67969-3.5898-1.0547-5.5547-1.0547zm-43.648 1.5859c0-0.875 0.71094-1.5859 1.5859-1.5859h23.016c0.875 0 1.5859 0.71094 1.5859 1.5859s-0.71094 1.5859-1.5859 1.5859h-23.016c-0.875 0-1.5859-0.71094-1.5859-1.5859zm53.543 7.9844c0.62109 0.62109 0.62109 1.625 0 2.2461l-9.7383 9.7383c-1.0547 1.0547-2.7656 1.0547-3.8203 0l-5.3516-5.3555c-0.62109-0.61719-0.62109-1.625 0-2.2422 0.62109-0.62109 1.625-0.62109 2.2461 0l5.0156 5.0156 9.4062-9.4023c0.61719-0.62109 1.6211-0.62109 2.2422 0zm-53.543 1.5391c0-0.875 0.71094-1.5859 1.5859-1.5859h19.047c0.87891 0 1.5898 0.71094 1.5898 1.5859 0 0.87891-0.71094 1.5859-1.5898 1.5859h-19.047c-0.875 0-1.5859-0.70703-1.5859-1.5859zm0 9.5234c0-0.875 0.71094-1.5859 1.5859-1.5859h19.047c0.87891 0 1.5898 0.71094 1.5898 1.5859 0 0.87891-0.71094 1.5898-1.5898 1.5898h-19.047c-0.875 0-1.5859-0.71094-1.5859-1.5898zm0 9.5234c0-0.875 0.71094-1.5859 1.5859-1.5859h23.016c0.875 0 1.5859 0.71094 1.5859 1.5859 0 0.87891-0.71094 1.5898-1.5859 1.5898h-23.016c-0.875 0-1.5859-0.71094-1.5859-1.5898z" fill-rule="evenodd"/>
</svg>