<svg xmlns="http://www.w3.org/2000/svg" version="1.1" viewBox="-5.0 -10.0 110.0 135.0">
 <path fill="#1e439b" d="m72.656 93.75c-6.4727 0.007812-12.586-2.957-16.594-8.0391-4.0078-5.0781-5.4648-11.719-3.9492-18.008 1.5156-6.293 5.832-11.543 11.711-14.246 5.8789-2.6992 12.676-2.5547 18.434 0.39453 5.7617 2.9492 9.8477 8.3789 11.094 14.727 1.2461 6.3516-0.49219 12.922-4.7109 17.828-0.25781 0.35547-0.64844 0.58594-1.0859 0.63672-0.43359 0.054687-0.87109-0.082031-1.2031-0.36719-0.32812-0.28516-0.52734-0.69531-0.53906-1.1328-0.015625-0.4375 0.15625-0.86328 0.46875-1.168 3.9297-4.6133 5.2734-10.898 3.5703-16.715-1.7031-5.8164-6.2227-10.387-12.02-12.152-5.8008-1.7656-12.098-0.49219-16.754 3.3867-4.6562 3.8828-7.0469 9.8477-6.3555 15.871 0.69141 6.0195 4.3711 11.289 9.7852 14.012 5.4141 2.7266 11.84 2.5391 17.086-0.49609 0.75-0.42969 1.7109-0.17188 2.1406 0.57812s0.17188 1.7109-0.57812 2.1406c-3.1992 1.8164-6.8203 2.7656-10.5 2.75zm-16.406 0h-25.812c-4.75-0.027344-8.5781-3.8906-8.5625-8.6406v-3.6094c-0.42188 0.19141-0.83594 0.40625-1.2344 0.64062-1.6641 1.0625-3.6055 1.6055-5.5781 1.5625-3.1367 0-5.6797-2.5352-5.6875-5.6719v-8.2344c0-0.86328 0.69922-1.5625 1.5625-1.5625s1.5625 0.69922 1.5625 1.5625v8.2344c-0.003906 0.67969 0.26562 1.3359 0.74609 1.8164 0.48047 0.48047 1.1367 0.75 1.8164 0.74609 1.4336 0.039062 2.8438-0.37109 4.0312-1.1719 0.86328-0.55859 1.7969-0.99609 2.7812-1.2969v-47.781c0-0.86328 0.69922-1.5625 1.5625-1.5625s1.5625 0.69922 1.5625 1.5625v54.766c-0.015625 3.0234 2.4141 5.4883 5.4375 5.5156h25.812c0.86328 0 1.5625 0.69922 1.5625 1.5625s-0.69922 1.5625-1.5625 1.5625zm16.406-4.6875c-0.86328 0-1.5625-0.69922-1.5625-1.5625v-1.0938c0-0.86328 0.69922-1.5625 1.5625-1.5625s1.5625 0.69922 1.5625 1.5625v1.0938c0 0.41406-0.16406 0.8125-0.45703 1.1055s-0.69141 0.45703-1.1055 0.45703zm5.4688-1.7812c-0.68359-0.046875-1.2578-0.53125-1.418-1.1992-0.15625-0.66797 0.14062-1.3594 0.73047-1.707 2.9414-1.3711 5.3008-3.7305 6.6719-6.6719 0.36719-0.78125 1.2969-1.1172 2.0781-0.75 0.77344 0.36719 1.1055 1.2852 0.75 2.0625-1.6758 3.6133-4.5742 6.5117-8.1875 8.1875-0.19922 0.070313-0.41406 0.097656-0.625 0.078125zm-31.547-6.5469h-14.453c-0.86328 0-1.5625-0.69922-1.5625-1.5625s0.69922-1.5625 1.5625-1.5625h14.453c0.86328 0 1.5625 0.69922 1.5625 1.5625s-0.69922 1.5625-1.5625 1.5625zm40.812-6.5156h-1.1875c-0.86328 0-1.5625-0.69922-1.5625-1.5625s0.69922-1.5625 1.5625-1.5625h1.1875c0.86328 0 1.5625 0.69922 1.5625 1.5625s-0.69922 1.5625-1.5625 1.5625zm-28.344 0h-1.2344c-0.86328 0-1.5625-0.69922-1.5625-1.5625s0.69922-1.5625 1.5625-1.5625h1.2812c0.86328 0 1.5625 0.69922 1.5625 1.5625s-0.69922 1.5625-1.5625 1.5625zm13.609 0h-7.0312c-0.86328 0-1.5625-0.69922-1.5625-1.5625s0.69922-1.5625 1.5625-1.5625h6.25l8.4375-9.7188c0.56641-0.69141 1.582-0.79297 2.2734-0.22656 0.69141 0.56641 0.79297 1.582 0.22656 2.2734l-8.8906 10.266c-0.31641 0.36328-0.78516 0.55859-1.2656 0.53125zm-33.297-2.1719h-7.2344c-0.86328 0-1.5625-0.69922-1.5625-1.5625s0.69922-1.5625 1.5625-1.5625h7.2344c0.86328 0 1.5625 0.69922 1.5625 1.5625s-0.69922 1.5625-1.5625 1.5625zm-28.422-7.5625c-0.86328 0-1.5625-0.69922-1.5625-1.5625v-48.062c0-4.6602 3.7773-8.4375 8.4375-8.4375h34.375c3.5 0.035156 6.4531 2.6133 6.9531 6.0781 1.9023 0.027344 3.7188 0.80859 5.0469 2.1719l9.375 9.6875c1.3477 1.3906 2.0977 3.25 2.0938 5.1875v15.625c0 0.86328-0.69922 1.5625-1.5625 1.5625s-1.5625-0.69922-1.5625-1.5625v-15.625c-0.011719-1.1172-0.45312-2.1875-1.2344-2.9844l-9.375-9.6719c-0.23047-0.24219-0.48438-0.45703-0.76562-0.64062v6.5312c0.03125 1.1484 0.52344 2.2383 1.3633 3.0234 0.83594 0.78906 1.957 1.207 3.1055 1.1641h2.6562c0.86328 0 1.5625 0.69922 1.5625 1.5625s-0.69922 1.5625-1.5625 1.5625h-2.6562c-4.1016 0.042969-7.4648-3.2422-7.5156-7.3438v-7.125h-27.641c-3.082 0.066406-5.5312 2.6211-5.4688 5.7031 0 0.86328-0.69922 1.5625-1.5625 1.5625s-1.5625-0.69922-1.5625-1.5625c-0.050781-4.8047 3.7891-8.75 8.5938-8.8281h25.484c-0.45312-1.7344-2.0195-2.9492-3.8125-2.9531h-34.375c-2.9141 0.027344-5.2656 2.3984-5.2656 5.3125v48.062c0 0.41406-0.16406 0.8125-0.45703 1.1055-0.29297 0.29297-0.69141 0.45703-1.1055 0.45703zm37.734-1.1094h-16.547c-0.86328 0-1.5625-0.69922-1.5625-1.5625s0.69922-1.5625 1.5625-1.5625h16.547c0.86328 0 1.5625 0.69922 1.5625 1.5625s-0.69922 1.5625-1.5625 1.5625zm23.984-2.9844c-0.86328 0-1.5625-0.69922-1.5625-1.5625v-1.1094c0-0.86328 0.69922-1.5625 1.5625-1.5625s1.5625 0.69922 1.5625 1.5625v1.1094c0 0.41406-0.16406 0.8125-0.45703 1.1055-0.29297 0.29297-0.69141 0.45703-1.1055 0.45703zm-17.969-5.7031h-22.562c-0.86328 0-1.5625-0.69922-1.5625-1.5625s0.69922-1.5625 1.5625-1.5625h22.562c0.86328 0 1.5625 0.69922 1.5625 1.5625s-0.69922 1.5625-1.5625 1.5625zm8.125-6.875h-1.3594c-3.8789-0.007812-7.0234-3.1523-7.0312-7.0312v-1.3594c0.007813-3.8789 3.1523-7.0234 7.0312-7.0312h1.3594c3.8828 0 7.0312 3.1484 7.0312 7.0312v1.3594c0 3.8828-3.1484 7.0312-7.0312 7.0312zm-1.3594-12.297c-2.1523 0.007813-3.8984 1.7539-3.9062 3.9062v1.3594c0.007813 2.1523 1.7539 3.8984 3.9062 3.9062h1.3594c1.0352 0 2.0312-0.41016 2.7617-1.1445 0.73438-0.73047 1.1445-1.7266 1.1445-2.7617v-1.3594c0-1.0352-0.41016-2.0312-1.1445-2.7617-0.73047-0.73438-1.7266-1.1445-2.7617-1.1445zm-11.969 10.484h-17.359c-0.86328 0-1.5625-0.69922-1.5625-1.5625s0.69922-1.5625 1.5625-1.5625h17.359c0.86328 0 1.5625 0.69922 1.5625 1.5625s-0.69922 1.5625-1.5625 1.5625zm-1.4531-8.6719h-15.906c-0.86328 0-1.5625-0.69922-1.5625-1.5625s0.69922-1.5625 1.5625-1.5625h15.906c0.86328 0 1.5625 0.69922 1.5625 1.5625s-0.69922 1.5625-1.5625 1.5625zm4.3438-8.6875h-20.312c-0.86328 0-1.5625-0.69922-1.5625-1.5625s0.69922-1.5625 1.5625-1.5625h20.312c0.86328 0 1.5625 0.69922 1.5625 1.5625s-0.69922 1.5625-1.5625 1.5625z"/>
</svg>