<svg xmlns="http://www.w3.org/2000/svg" version="1.1" viewBox="-5.0 -10.0 110.0 135.0">
 <path fill="#1e439b" d="m93.691 75.484c-0.078125-0.80469-0.75781-1.4141-1.5625-1.4102h-2.9297v-1.8086c0-6.875-10.352-6.875-10.352 0v1.8086h-2.9297c-0.80469-0.003907-1.4844 0.60547-1.5625 1.4102l-1.5312 15.469 0.003906-0.003906c-0.15234 1.5391 0.35156 3.0664 1.3867 4.2109 1.0391 1.1445 2.5078 1.7969 4.0508 1.7969h11.477c1.5469 0 3.0156-0.65234 4.0547-1.7969 1.0352-1.1445 1.5391-2.6719 1.3906-4.2109zm-3.9062 18.352-11.48-0.003907c-0.66406 0-1.293-0.28125-1.7344-0.77344-0.44141-0.48828-0.66016-1.1445-0.59375-1.8008l1.3906-14.062h1.5078v2.0664c0 2.0664 3.125 2.0664 3.125 0v-2.0625c0.86328 0 1.5625-0.69922 1.5625-1.5625s-0.69922-1.5625-1.5625-1.5625v-1.8086c0-2.7344 4.1016-2.7344 4.1016 0v7c0 2.0664 3.125 2.0664 3.125 0v-2.0664h1.5078l1.3906 14.062c0.0625 0.66016-0.15625 1.3164-0.60156 1.8047-0.44531 0.49219-1.082 0.76953-1.7422 0.76562z"/>
 <path fill="#1e439b" d="m69.484 27.695c0.34766 2.6914 1.9297 5.0703 4.2812 6.4258 2.3516 1.3594 5.2031 1.543 7.7109 0.49609 2.5039 1.0469 5.3555 0.86328 7.707-0.49609 2.3516-1.3555 3.9375-3.7344 4.2852-6.4258h-0.003906c2.1602-1.6484 3.4297-4.2109 3.4297-6.9258 0-2.7148-1.2695-5.2734-3.4297-6.9219-0.34375-2.6953-1.9297-5.0703-4.2812-6.4297-2.3516-1.3555-5.2031-1.5391-7.7109-0.49609l0.003906 0.003906c-2.5078-1.0469-5.3594-0.86328-7.7109 0.49219-2.3516 1.3594-3.9336 3.7344-4.2812 6.4297-2.1602 1.6484-3.4258 4.207-3.4258 6.9219 0 2.7148 1.2656 5.2773 3.4258 6.9258zm2.3242-11.656v-0.003906c0.44141-0.27344 0.71484-0.75 0.73438-1.2695 0.066406-1.9258 1.1211-3.6797 2.7891-4.6406 1.668-0.96484 3.7148-1 5.4141-0.09375 0.45703 0.24219 1.0078 0.24219 1.4648 0 1.7031-0.90625 3.75-0.87109 5.418 0.089844 1.668 0.96484 2.7227 2.7188 2.7852 4.6445 0.019532 0.51953 0.29688 0.99609 0.73438 1.2695 1.6367 1.0195 2.6289 2.8086 2.6289 4.7344s-0.99219 3.7148-2.6289 4.7344c-0.4375 0.27344-0.71484 0.75-0.73438 1.2695-0.0625 1.9258-1.1172 3.6836-2.7852 4.6445-1.668 0.96484-3.7148 1-5.418 0.089843-0.45703-0.24219-1.0078-0.24219-1.4648 0-1.6992 0.90625-3.7461 0.87109-5.4141-0.089843-1.668-0.96484-2.7227-2.7188-2.7891-4.6445-0.019531-0.51953-0.29297-0.99609-0.73438-1.2695-1.6328-1.0195-2.625-2.8086-2.625-4.7344s0.99219-3.7148 2.625-4.7305z"/>
 <path fill="#1e439b" d="m79.996 26.609 5.6836-10.156c1.0117-1.8047-1.7148-3.3203-2.7344-1.5273l-5.6836 10.156c-1.0039 1.8047 1.7227 3.332 2.7344 1.5273z"/>
 <path fill="#1e439b" d="m87.164 24.027c0 2.082-3.125 2.082-3.125 0 0-2.082 3.125-2.082 3.125 0"/>
 <path fill="#1e439b" d="m79.781 16.641c0 2.0859-3.125 2.0859-3.125 0 0-2.082 3.125-2.082 3.125 0"/>
 <path fill="#1e439b" d="m74.586 62.16-6.0547-10.484 1.4141-1.5156v0.003906c1.8828-2.0078 2.2305-5.0117 0.84766-7.3906l-4.6562-8.0586h0.003906c-1.3711-2.3945-4.1523-3.6055-6.8359-2.9688l-2.0156 0.46875-6.0547-10.484c-3.5156-6.0938-12.617-0.91016-9.3594 5.1719-2.3047 8.4688-6 14.758-11.551 19.602-3.9062-4.1719-11.273 0.42578-8.8359 5.9102l-11.723 6.7656c-2.4688 1.4297-3.6602 4.3477-2.8906 7.0938l-0.23438 0.13281c-7.9883 4.6094-0.97656 16.602 6.9453 12.031l0.24219-0.14062h0.003906c1.625 1.6602 4.0391 2.2852 6.2695 1.6133 1.3086 1.5742 3.1602 2.5977 5.1914 2.8711 2.9883 5.2422 7.0664 9.7852 11.961 13.312h0.003906c1.7031 1.2305 4.0625 0.98047 5.4688-0.58594l1.6172-1.793c1.3672-1.5273 1.4102-3.8242 0.097656-5.4023-1.7852-2.1523-3.4297-4.4258-4.918-6.7969-0.46484-0.73047-1.4336-0.94141-2.1602-0.47656-0.73047 0.46875-0.94141 1.4336-0.47656 2.1641 1.5625 2.4883 3.2891 4.8711 5.1602 7.1367l0.003906-0.003906c0.3125 0.37891 0.30078 0.92969-0.027343 1.2969l-1.6172 1.793c-0.33984 0.375-0.91016 0.4375-1.3203 0.14062-4.1328-2.9727-7.6445-6.7305-10.332-11.055 1.1719-0.35938 1.2852-0.49219 6.6094-3.5664h-0.003906c1.7305-1 3.0352-2.5977 3.6719-4.4922 3.0781-1.0078 5.0508-4.4453 3.0781-7.8594l-10.078-17.449c5.4844-4.6875 9.4297-10.781 11.984-18.527l19.266 33.344c-5.8984-1.2344-11.328-1.3672-16.484-0.39063-0.85156 0.16016-1.4062 0.98047-1.2461 1.8281 0.16406 0.84766 0.98047 1.4062 1.832 1.2422 5.5508-1.0469 11.469-0.70312 18.062 1.0391 3.6328 5.9062 12.648 0.55469 9.1406-5.5195zm-66.32 6.918 3.8242 6.6172c-4.5234 2.6133-8.2891-4.0391-3.8242-6.6172zm25.531 7.1562-4.8906 2.8281c-1.8984 1.0898-4.2812 0.83984-5.9141-0.625l6.2812-3.6328c1.7891-1.0312 0.22656-3.7383-1.5625-2.707l-7.8516 4.5352c-1.3906 0.80078-3.1602 0.42188-4.1016-0.87891l3.3516-1.9258c1.7891-1.0312 0.22656-3.7383-1.5625-2.707l-3.3711 1.9531-2.582-4.4883 7.0117-4.0469c1.7891-1.0312 0.22656-3.7383-1.5625-2.707l-6.9961 4.0391c-0.66406-1.4648-0.10938-3.1914 1.2812-3.9961l11.688-6.7461 9.7344 16.859c0.74219 1.2891 1.7578 2.0781 2.8516 2.4609-0.4375 0.73828-1.0586 1.3516-1.8047 1.7852zm1.6641-5.8086-10.953-18.977c-1.4961-2.5938 2.4219-4.9023 3.9414-2.2734l10.953 18.977c1.5352 2.6523-2.4258 4.8945-3.9414 2.2734zm24.551-35.645h0.003906c1.3398-0.3125 2.7305 0.28906 3.418 1.4844l4.6523 8.0703c0.69531 1.1953 0.52344 2.7031-0.42188 3.7109l-0.76562 0.8125-7.9727-13.828zm8.0078 31.164-23.348-40.43c-1.4688-2.5391 2.3438-4.8359 3.8516-2.2227l23.352 40.43c1.4922 2.5742-2.3594 4.7969-3.8438 2.2227z"/>
 <path fill="#1e439b" d="m13.086 26.027 6.1875 5.3516c1.957 1.6914 4.918 1.4766 6.6094-0.48047l7.5469-8.7266c0.89844-1.0391 1.2969-2.418 1.0898-3.7734l-0.80469-5.3125c-0.3125-2.043-3.4023-1.5625-3.0898 0.47266l0.82031 5.3086c0.070313 0.45312-0.0625 0.91406-0.36328 1.2578l-7.5469 8.7266c-0.5625 0.65234-1.5508 0.72656-2.2031 0.16016l-6.1914-5.3477c-0.65234-0.5625-0.72656-1.5508-0.16016-2.2031l7.5469-8.7266c0.55469-0.64062 1.2227-0.53906 1.8359-0.53516l-0.003906-0.003907c0.32812 1.6406 1.1953 3.1211 2.4648 4.2109 0.65234 0.53516 1.6172 0.45312 2.1719-0.1875 0.55078-0.64062 0.49609-1.6055-0.12891-2.1758-1.2109-1.0469-1.7617-2.6641-1.4453-4.2305s1.4531-2.8438 2.9727-3.3398 3.1914-0.13281 4.3711 0.94531c1.1797 1.082 1.6875 2.7109 1.3281 4.2695-0.46094 2.0156 2.582 2.7148 3.0469 0.69922h-0.003906c0.45312-1.9609 0.10156-4.0195-0.96875-5.7227-1.0703-1.7031-2.7773-2.9102-4.7422-3.3516-1.9609-0.44141-4.0195-0.082031-5.7188 0.99609-1.6953 1.082-2.8945 2.793-3.3242 4.7578h-0.67187c-1.3633 0-2.6562 0.58984-3.5469 1.6211l-7.5508 8.7266c-1.6953 1.957-1.4844 4.918 0.47266 6.6133z"/>
</svg>