<svg xmlns="http://www.w3.org/2000/svg" version="1.1" viewBox="-5.0 -10.0 110.0 135.0">
 <path fill="#1e439b" d="m18.938 9.0898c0-0.83594 0.67969-1.5156 1.5156-1.5156h54.547c0.83594 0 1.5156 0.67969 1.5156 1.5156v56.293c2.8086 2.8672 4.5469 6.7969 4.5469 11.133 0 6.0977-3.4336 11.391-8.4648 14.062-1.2461 0.66016-2.5938 1.1641-4.0156 1.4766-1.1055 0.24219-2.2539 0.37109-3.4297 0.37109-4.75 0-9.0117-2.082-11.926-5.3789-0.37109-0.42188-0.72266-0.85938-1.0469-1.3203-0.25391-0.35547-0.49609-0.72656-0.71875-1.1055l-2.8047 2.1797c-0.54688 0.42578-1.3125 0.42578-1.8594 0l-5.8867-4.5781-5.8906 4.5781c-0.54688 0.42578-1.3125 0.42578-1.8594 0l-5.8867-4.5781-5.8906 4.5781c-0.45312 0.35547-1.0742 0.42188-1.5938 0.16797-0.51953-0.25781-0.85156-0.78516-0.85156-1.3633zm31.207 72.719c-0.55078-1.5664-0.86719-3.2383-0.89844-4.9805-0.003906-0.10547-0.003906-0.20703-0.003906-0.3125 0-8.7852 7.1211-15.91 15.91-15.91 2.0664 0 4.043 0.39453 5.8594 1.1172 0.066406 0.023438 0.13281 0.050782 0.19922 0.078125 0.79297 0.32812 1.5508 0.71484 2.2734 1.1602v-52.355h-51.516v71.902l4.375-3.4023c0.54688-0.42578 1.3125-0.42578 1.8594 0l5.8867 4.582 5.8906-4.582c0.54688-0.42578 1.3125-0.42578 1.8594 0l5.8867 4.582zm-22.871-60.598c0-0.83594 0.67578-1.5156 1.5156-1.5156h10.605c0.83594 0 1.5156 0.67969 1.5156 1.5156 0 0.83984-0.67969 1.5156-1.5156 1.5156h-10.605c-0.83984 0-1.5156-0.67578-1.5156-1.5156zm0 10.605c0-0.83594 0.67578-1.5117 1.5156-1.5117h21.211c0.83594 0 1.5156 0.67578 1.5156 1.5117 0 0.83984-0.67969 1.5156-1.5156 1.5156h-21.211c-0.83984 0-1.5156-0.67578-1.5156-1.5156zm31.816 0c0-0.83594 0.67969-1.5117 1.5156-1.5117h6.0625c0.83594 0 1.5156 0.67578 1.5156 1.5117 0 0.83984-0.67969 1.5156-1.5156 1.5156h-6.0625c-0.83594 0-1.5156-0.67578-1.5156-1.5156zm-31.816 7.5781c0-0.83594 0.67578-1.5156 1.5156-1.5156h21.211c0.83594 0 1.5156 0.67969 1.5156 1.5156 0 0.83594-0.67969 1.5156-1.5156 1.5156h-21.211c-0.83984 0-1.5156-0.67969-1.5156-1.5156zm31.816 0c0-0.83594 0.67969-1.5156 1.5156-1.5156h6.0625c0.83594 0 1.5156 0.67969 1.5156 1.5156 0 0.83594-0.67969 1.5156-1.5156 1.5156h-6.0625c-0.83594 0-1.5156-0.67969-1.5156-1.5156zm-31.816 7.5742c0-0.83594 0.67578-1.5156 1.5156-1.5156h21.211c0.83594 0 1.5156 0.67969 1.5156 1.5156s-0.67969 1.5156-1.5156 1.5156h-21.211c-0.83984 0-1.5156-0.67969-1.5156-1.5156zm31.816 0c0-0.83594 0.67969-1.5156 1.5156-1.5156h6.0625c0.83594 0 1.5156 0.67969 1.5156 1.5156s-0.67969 1.5156-1.5156 1.5156h-6.0625c-0.83594 0-1.5156-0.67969-1.5156-1.5156zm-31.816 7.5781c0-0.83984 0.67578-1.5156 1.5156-1.5156h21.211c0.83594 0 1.5156 0.67578 1.5156 1.5156 0 0.83594-0.67969 1.5156-1.5156 1.5156h-21.211c-0.83984 0-1.5156-0.67969-1.5156-1.5156zm31.816 0c0-0.83984 0.67969-1.5156 1.5156-1.5156h6.0625c0.83594 0 1.5156 0.67578 1.5156 1.5156 0 0.83594-0.67969 1.5156-1.5156 1.5156h-6.0625c-0.83594 0-1.5156-0.67969-1.5156-1.5156zm6.0625 9.0898c-7.1133 0-12.879 5.7656-12.879 12.879v0.25391c0.035156 1.7539 0.41797 3.4141 1.082 4.9258 0.35547 0.80469 0.78906 1.5664 1.293 2.2734 0.26562 0.375 0.54687 0.73047 0.85156 1.0742 2.3594 2.668 5.8086 4.3516 9.6523 4.3516 0.95703 0 1.8867-0.10547 2.7812-0.30078 1.1445-0.25391 2.2344-0.65625 3.2461-1.1953 4.0781-2.1641 6.8516-6.4492 6.8516-11.383 0-3.7031-1.5625-7.043-4.0664-9.3945-1.1328-1.0586-2.4531-1.918-3.9062-2.5195-0.054688-0.019531-0.10938-0.042968-0.16406-0.0625-1.4648-0.58203-3.0664-0.90234-4.7422-0.90234zm-6.5 6.375c0.58984-0.58984 1.5508-0.58984 2.1406 0l4.3594 4.3594 4.3555-4.3594c0.59375-0.58984 1.5508-0.58984 2.1445 0 0.58984 0.59375 0.58984 1.5547 0 2.1445l-4.3594 4.3555 4.3594 4.3594c0.58984 0.58984 0.58984 1.5508 0 2.1406-0.59375 0.59375-1.5508 0.59375-2.1445 0l-4.3555-4.3555-4.3594 4.3555c-0.58984 0.59375-1.5508 0.59375-2.1406 0-0.59375-0.58984-0.59375-1.5508 0-2.1406l4.3555-4.3594-4.3555-4.3555c-0.59375-0.58984-0.59375-1.5508 0-2.1445z" fill-rule="evenodd"/>
</svg>