<svg xmlns="http://www.w3.org/2000/svg" version="1.1" viewBox="-5.0 -10.0 110.0 135.0">
 <path fill="#1e439b" d="m25.422 38.289c0-0.77734 0.62891-1.4062 1.4062-1.4062h30.191c0.77734 0 1.4062 0.62891 1.4062 1.4062 0 0.77734-0.62891 1.4062-1.4062 1.4062h-30.191c-0.77734 0-1.4062-0.62891-1.4062-1.4062zm1.4062-7.5938h30.191c0.77734 0 1.4062-0.62891 1.4062-1.4062 0-0.77734-0.62891-1.4062-1.4062-1.4062h-30.191c-0.77734 0-1.4062 0.62891-1.4062 1.4062 0 0.77734 0.62891 1.4062 1.4062 1.4062zm0 18h30.191c0.77734 0 1.4062-0.62891 1.4062-1.4062 0-0.77734-0.62891-1.4062-1.4062-1.4062h-30.191c-0.77734 0-1.4062 0.62891-1.4062 1.4062 0 0.77734 0.62891 1.4062 1.4062 1.4062zm0 9h16.18c0.77734 0 1.4062-0.62891 1.4062-1.4062 0-0.77734-0.62891-1.4062-1.4062-1.4062h-16.18c-0.77734 0-1.4062 0.62891-1.4062 1.4062 0 0.77734 0.62891 1.4062 1.4062 1.4062zm0 9h16.18c0.77734 0 1.4062-0.62891 1.4062-1.4062 0-0.77734-0.62891-1.4062-1.4062-1.4062h-16.18c-0.77734 0-1.4062 0.62891-1.4062 1.4062 0 0.77734 0.62891 1.4062 1.4062 1.4062zm0-45h30.191c0.77734 0 1.4062-0.62891 1.4062-1.4062 0-0.77734-0.62891-1.4062-1.4062-1.4062h-30.191c-0.77734 0-1.4062 0.62891-1.4062 1.4062 0 0.77734 0.62891 1.4062 1.4062 1.4062zm55.824 42.727c0.058594 0.26953 0.089844 0.54297 0.089844 0.82422v4.2383c0 0.95312-0.34375 1.8281-0.91016 2.5078 0.57031 0.67969 0.91016 1.5547 0.91016 2.5078v4.2383c0 0.95312-0.34375 1.8281-0.91016 2.5078 0.57031 0.67969 0.91016 1.5547 0.91016 2.5078v4.2383c0 2.1562-1.7578 3.9141-3.9141 3.9141h-28.039c-2.1562 0-3.9141-1.7578-3.9141-3.9141v-1.9062l-34.227-0.11328c-0.039063 0-0.078126-0.003906-0.11719-0.003906-0.20312-0.019531-2.0508-0.21484-3.875-1.7109-1.6484-1.3516-3.5859-4.0547-3.4766-9.2812 0.015624-0.76562 0.64062-1.375 1.4062-1.375h8.8281v-54.285c-0.10547-5.2148 1.832-7.918 3.4766-9.2656 1.8242-1.4961 3.6719-1.6953 3.875-1.7109 0.039063-0.003906 0.074219-0.003906 0.11328-0.003906l48.988-0.24219h0.058593 0.42969c3.4805 0 6.3086 2.8281 6.3086 6.3086v4.9023c0 0.77734-0.62891 1.4062-1.4062 1.4062h-8.8281v14.047c2.7344-1.9531 6.0781-3.1055 9.6914-3.1055 9.207 0 16.699 7.4922 16.699 16.699 0 7.6406-5.1562 14.098-12.172 16.074zm-14.219-46.527h7.4258v-3.4961c0-1.9297-1.5703-3.4961-3.4961-3.4961h-0.46875c-1.9102 0.019531-3.457 1.582-3.457 3.4961v3.4961zm-50.207 1.3789v0.03125 54.301h28.75c0.14063-0.60156 0.42188-1.1484 0.80859-1.6094-0.57031-0.67969-0.91016-1.5547-0.91016-2.5078v-4.2383c0-0.95312 0.34375-1.8281 0.91016-2.5078-0.57031-0.67969-0.91016-1.5547-0.91016-2.5078v-4.2383c0-2.1562 1.7578-3.9141 3.9141-3.9141h11.059c-0.27344-1.1992-0.42188-2.4492-0.42188-3.7305 0-4.2383 1.5859-8.1094 4.1992-11.059l-0.003906-22.895c0-1.2812 0.38281-2.4727 1.043-3.4727l-43.688 0.21875c-0.20703 0.03125-1.3359 0.24219-2.4062 1.1719-1.6211 1.4023-2.4102 3.7422-2.3398 6.957zm60.602 54.125h-28.039c-0.60547 0-1.1016 0.49219-1.1016 1.1016v4.2383c0 0.60547 0.49219 1.1016 1.1016 1.1016h28.039c0.60547 0 1.1016-0.49219 1.1016-1.1016v-4.2383c0-0.60547-0.49219-1.1016-1.1016-1.1016zm-28.039-12.066h16.848c-2.1094-1.707-3.7969-3.9141-4.875-6.4414h-11.973c-0.60547 0-1.1016 0.49219-1.1016 1.1016v4.2383c0 0.60547 0.49219 1.1016 1.1016 1.1016zm-38.047 21.832 34.16 0.11328c0.09375-0.76562 0.41016-1.4648 0.88281-2.0312-0.57031-0.67969-0.91016-1.5547-0.91016-2.5078v-2.3242h-38.855c0.15625 2.5156 0.93359 4.3867 2.3164 5.5781 1.0625 0.91797 2.1758 1.1328 2.4102 1.1719zm67.188 0.59375c0-0.60547-0.49219-1.1016-1.1016-1.1016h-28.039c-0.60547 0-1.1016 0.49219-1.1016 1.1016v4.2383c0 0.60547 0.49219 1.1016 1.1016 1.1016h28.039c0.60547 0 1.1016-0.49219 1.1016-1.1016zm-0.042969-18.805c-0.57812 0.0625-1.168 0.09375-1.7656 0.09375-1.8945 0-3.7188-0.31641-5.418-0.90234h-21.918c-0.60547 0-1.1016 0.49219-1.1016 1.1016v4.2383c0 0.60547 0.49219 1.1016 1.1016 1.1016h28.039c0.60547 0 1.1016-0.49219 1.1016-1.1016v-4.2383c0-0.10156-0.015625-0.19922-0.039062-0.29297zm12.125-16.605c0-7.6562-6.2305-13.887-13.887-13.887s-13.887 6.2305-13.887 13.887 6.2305 13.887 13.887 13.887 13.887-6.2305 13.887-13.887zm-13.531-1.4062h-0.71094c-0.98047 0-1.7773-0.79688-1.7773-1.7773 0-0.98047 0.79687-1.7773 1.7773-1.7773h1.0039c0.56641 0 1.1055 0.27734 1.4414 0.74219 0.45312 0.62891 1.3359 0.76953 1.9648 0.31641 0.62891-0.45312 0.76953-1.3359 0.31641-1.9648-0.71484-0.98438-1.7852-1.6445-2.9609-1.8438v-1.3789c0-0.77734-0.62891-1.4062-1.4062-1.4062s-1.4062 0.62891-1.4062 1.4062v1.4375c-2.0273 0.47656-3.5391 2.3008-3.5391 4.4688 0 2.5312 2.0586 4.5898 4.5898 4.5898h0.71094c0.98047 0 1.7773 0.79688 1.7773 1.7773s-0.79688 1.7773-1.7773 1.7773h-1.0039c-0.56641 0-1.1055-0.27734-1.4414-0.74219-0.45312-0.62891-1.3359-0.76953-1.9648-0.31641-0.62891 0.45312-0.76953 1.3359-0.31641 1.9648 0.71484 0.98438 1.7852 1.6445 2.9609 1.8438v1.3789c0 0.77734 0.62891 1.4062 1.4062 1.4062s1.4062-0.62891 1.4062-1.4062v-1.4375c2.0273-0.47656 3.5391-2.3008 3.5391-4.4688 0-2.5312-2.0586-4.5898-4.5898-4.5898z"/>
</svg>